<svg width="114" height="30" viewBox="0 0 114 30" fill="none" xmlns="http://www.w3.org/2000/svg">
<g clip-path="url(#clip0_1_2)">
<path d="M2 14.4027H12.5212C15.1879 14.4027 17.4344 15.0241 19.2606 16.267C21.0868 17.4977 22 18.9759 22 20.7014C22 22.4268 21.0868 23.911 19.2606 25.1539C17.4344 26.3846 15.1879 27 12.5212 27H2V14.4027ZM2 14.4027V3H12.0606C14.0808 3 15.7777 3.47662 17.1515 4.42986C18.5414 5.3831 19.2364 7.43438 19.2364 8.73755C19.2364 10.0528 18.5495 12.098 17.1758 13.0271C15.802 13.9442 14.0969 14.4027 12.0606 14.4027L2 14.4027Z" stroke="black" stroke-width="3" stroke-linejoin="round"/>
<path d="M32.2021 17.8504H46.7845M28 27L39.4817 2L51 27" stroke="black" stroke-width="3" stroke-linecap="round" stroke-linejoin="round"/>
<path d="M81 22.7385C79.7809 24.3671 78.2337 25.654 76.3582 26.5992C74.4828 27.5331 72.4608 28 70.2923 28C68.4871 28 66.7641 27.6583 65.1231 26.975C63.482 26.2917 62.0696 25.3692 60.8857 24.2076C59.7019 23.046 58.7583 21.6623 58.0549 20.0565C57.3516 18.4507 57 16.7652 57 15C57 13.2348 57.3516 11.5493 58.0549 9.9435C58.7583 8.33772 59.7019 6.95401 60.8857 5.79238C62.0696 4.63075 63.482 3.70828 65.1231 3.02497C66.7641 2.34165 68.4871 2 70.2923 2C72.4491 2 74.4652 2.47832 76.3407 3.43495C78.2161 4.3802 79.7692 5.6728 81 7.31275" stroke="black" stroke-width="3" stroke-linecap="round"/>
<path d="M100.467 26C100.467 26 100.467 19.6186 100.467 15.5297M100.467 15.5297C95.989 15.5297 89 15.5297 89 15.5297M100.467 15.5297C100.467 11.4176 100.467 5 100.467 5M100.467 15.5297C104.971 15.5297 112 15.5297 112 15.5297" stroke="black" stroke-width="3" stroke-linecap="round" stroke-linejoin="round"/>
</g>
<defs>
<clipPath id="clip0_1_2">
<rect width="114" height="30" fill="white"/>
</clipPath>
</defs>
</svg>
